# xmcd
#
# Track frame offsets:
#	150
#	10111
#	21038
#	33596
#	50891
#	65426
#	78444
#	89059
#	104960
#	115763
#	127072
#	139706
#	153741
#	165759
#	178973
#	191828
#	202624
#	215468
#
# Disc length: 2974
#
# Revision: 6
# Processed by: cddbd v1.5.1PL0 Copyright (c) Steve Scherf et al.
# Submitted via: VisiTrax 2.9.5.181 - For more info visit www.synapsa.com
# Normalized: r5:DSETVAR1
#
DISCID=040b9c12
DTITLE=Various Artist - Country - CD2
DYEAR=2003
DGENRE=Country
TTITLE0=Johnny Cash - Ballad Of A Teenage Queen
TTITLE1=Billie Jo Spears - I'm So Lonesome I Could Cry
TTITLE2=Kenny Rogers and The First Edition - Kenny Rogers and First Edition
TTITLE3=Bobby Bare - Sylvia's Mother
TTITLE4=Patsy Cline - Then You'll Know
TTITLE5=Boxcar Willie - Truck Driving Man
TTITLE6=Faron Young - If You Ain't Lovin'
TTITLE7=John Denver - Rocky Mountain Suite (Cold Nights In Canada)
TTITLE8=Waylon Jennings - Dream Baby
TTITLE9=Patsy Cline - Just Out Of Reach
TTITLE10=Johnny Cash - Folsom Prison Blues*
TTITLE11=Dave Dudley - Morning Sun
TTITLE12=Billie Jo Spears - Ease The Want In Me
TTITLE13=Donna Fargo - Daddy
TTITLE14=Dolly Parton - Little Blossom
TTITLE15=Waylon Jennings - Sally Was A Good Old Girl
TTITLE16=Thomas Frank - Hey, Billy My Old Friend
TTITLE17=George Jones - Jambalaya
EXTD=ID3G: 2
EXTT0=
EXTT1=
EXTT2=
EXTT3=
EXTT4=
EXTT5=
EXTT6=
EXTT7=
EXTT8=
EXTT9=
EXTT10=
EXTT11=
EXTT12=
EXTT13=
EXTT14=
EXTT15=
EXTT16=
EXTT17=
PLAYORDER=
